<?xml version="1.0" standalone="no"?>
<!DOCTYPE svg PUBLIC "-//W3C//DTD SVG 20010904//EN"
 "http://www.w3.org/TR/2001/REC-SVG-20010904/DTD/svg10.dtd">
<svg version="1.0" xmlns="http://www.w3.org/2000/svg"
 width="512.000000pt" height="512.000000pt" viewBox="0 0 512.000000 512.000000"
 preserveAspectRatio="xMidYMid meet">
<metadata>
Created by potrace 1.14, written by Peter Selinger 2001-2017
</metadata>
<g transform="translate(0.000000,512.000000) scale(0.100000,-0.100000)"
fill="#000000" stroke="none">
<path d="M3200 5097 c-19 -12 -45 -38 -57 -56 -22 -32 -23 -44 -23 -201 0
-149 2 -170 19 -191 13 -17 29 -23 56 -23 27 0 43 6 56 23 17 20 19 42 19 173
l0 150 143 -6 c166 -8 223 -14 362 -41 57 -11 193 -57 231 -79 l39 -21 0 -588
c0 -323 -3 -587 -7 -587 -3 0 -48 14 -98 30 -150 49 -361 80 -570 85 l-95 2
-5 305 c-5 283 -6 308 -24 327 -28 31 -79 28 -106 -6 -20 -26 -21 -34 -18
-352 3 -323 3 -326 26 -359 39 -53 70 -63 211 -68 254 -7 392 -29 583 -95 145
-49 203 -52 309 -14 210 75 367 102 630 109 127 4 159 14 202 66 14 17 29 49
32 73 3 23 5 317 3 654 -3 600 -3 612 -24 639 -48 64 -62 69 -217 69 -127 0
-246 -8 -302 -19 -11 -2 -40 -7 -65 -11 -25 -4 -55 -9 -66 -11 -58 -10 -206
-58 -260 -84 l-60 -30 -85 36 c-99 42 -229 78 -337 94 -42 6 -88 13 -102 16
-14 3 -102 7 -196 10 -165 4 -171 4 -204 -19z m1770 -726 c0 -331 -3 -601 -7
-602 -5 0 -55 -2 -113 -4 -205 -6 -409 -38 -553 -86 -48 -16 -91 -29 -95 -29
-4 0 -7 265 -7 590 l-1 589 56 25 c118 52 272 90 410 101 41 3 75 7 77 8 1 2
54 4 118 6 l115 3 0 -601z"/>
<path d="M4667 4763 c-2 -1 -30 -5 -62 -8 -33 -3 -67 -7 -75 -10 -8 -2 -32 -6
-53 -10 -129 -18 -177 -46 -177 -100 0 -62 49 -82 146 -59 38 8 82 17 99 20
16 2 39 6 50 8 11 2 58 7 105 10 47 4 97 9 112 12 55 11 76 81 37 123 -19 20
-29 22 -100 19 -44 -1 -81 -3 -82 -5z"/>
<path d="M4720 4473 c-171 -15 -368 -55 -400 -83 -22 -19 -26 -60 -9 -91 18
-35 50 -39 145 -18 95 22 120 25 229 35 39 3 79 7 90 9 11 2 28 4 38 4 27 1
57 38 57 70 0 60 -45 82 -150 74z"/>
<path d="M4484 4114 c-101 -17 -154 -35 -170 -58 -15 -22 -18 -54 -8 -81 10
-24 63 -45 90 -35 12 5 63 16 113 25 102 19 131 38 131 87 0 33 -41 77 -69 75
-10 0 -49 -6 -87 -13z"/>
<path d="M3397 4760 c-27 -17 -38 -54 -26 -89 15 -42 24 -46 159 -55 52 -4 96
-9 99 -10 3 -2 29 -6 56 -10 28 -3 66 -10 85 -16 19 -5 54 -13 77 -16 36 -5
46 -2 68 20 43 43 25 101 -40 126 -24 9 -157 36 -225 45 -92 12 -236 15 -253
5z"/>
<path d="M1445 4614 c-33 -8 -64 -15 -70 -17 -5 -1 -40 -18 -77 -36 -117 -59
-228 -175 -282 -293 -31 -69 -34 -79 -52 -173 -3 -16 -6 -133 -6 -259 -1 -227
-1 -229 -27 -275 -24 -44 -25 -53 -25 -191 0 -137 2 -148 27 -196 33 -64 86
-109 154 -131 34 -11 53 -22 54 -32 0 -9 2 -23 4 -31 2 -8 7 -28 10 -45 25
-119 113 -264 222 -364 l76 -70 -7 -56 c-7 -63 -32 -119 -68 -152 -23 -22 -27
-22 -408 -25 -366 -3 -387 -4 -430 -24 -58 -27 -108 -77 -133 -134 -18 -38
-21 -68 -22 -205 l-2 -160 -52 -80 c-98 -149 -160 -309 -191 -488 -13 -80 -17
-169 -18 -416 l-1 -314 -42 -40 c-49 -48 -71 -95 -74 -161 -5 -90 44 -176 128
-223 30 -17 122 -18 1707 -21 921 -2 1694 0 1717 3 64 9 131 60 164 125 24 46
27 65 25 116 -4 72 -22 109 -76 163 l-39 39 -2 313 c-1 362 -11 448 -70 622
-32 96 -74 182 -135 275 l-57 87 -2 160 c-1 171 -8 201 -59 268 -14 19 -50 47
-78 63 l-53 29 -391 3 -392 3 -29 32 c-34 38 -51 77 -57 132 -5 38 -3 41 44
74 168 114 279 289 314 492 5 31 12 37 45 47 47 15 97 61 120 112 15 33 17 66
14 227 -1 103 -2 193 -2 198 0 6 2 135 3 287 3 302 -2 339 -54 406 -28 35
-108 78 -159 86 -38 5 -51 19 -51 57 0 72 -82 168 -169 197 -53 18 -887 15
-966 -4z m862 -134 c83 0 109 -22 129 -110 22 -96 70 -141 164 -155 28 -4 55
-16 70 -31 l24 -24 1 -266 c1 -171 -3 -271 -10 -280 -15 -21 -61 -27 -90 -12
-13 7 -34 28 -47 47 -13 19 -36 44 -51 55 -31 23 -45 23 -237 12 -87 -5 -116
-3 -178 14 -126 35 -224 95 -343 211 -41 40 -93 81 -116 91 -101 45 -230 12
-297 -74 -42 -56 -49 -86 -52 -243 -1 -82 -3 -153 -3 -156 -2 -10 -125 33
-143 50 -16 15 -18 40 -18 236 -1 299 21 375 140 496 90 91 195 134 335 138
44 1 81 3 82 4 1 1 131 1 290 0 158 -1 316 -3 350 -3z m-661 -660 c151 -142
306 -226 466 -251 71 -11 239 -7 285 7 17 5 24 1 29 -12 11 -30 78 -89 120
-105 22 -8 64 -15 95 -14 l56 0 -1 -112 c-1 -131 -7 -141 -81 -147 -65 -5 -91
-34 -94 -104 -1 -28 -12 -87 -24 -131 -48 -164 -149 -283 -312 -365 -223 -112
-461 -88 -672 67 -131 97 -213 246 -228 417 -8 86 -29 110 -97 110 -53 0 -83
12 -110 43 -21 23 -20 17 -23 127 -4 106 0 123 24 110 33 -17 173 -60 198 -60
34 0 84 24 110 51 32 36 39 80 37 234 -2 183 13 214 100 215 34 0 47 -8 122
-80z m145 -1446 c121 -15 253 -5 332 25 24 9 26 7 50 -60 l24 -69 -323 0 -323
0 19 46 c11 25 20 54 20 64 0 45 7 47 79 23 37 -12 92 -26 122 -29z m1360
-268 c13 -6 33 -25 44 -42 20 -30 21 -39 20 -810 l0 -779 -1340 0 -1340 0 0
147 c-1 151 -5 167 -46 188 -26 14 -73 1 -89 -23 -10 -16 -15 -61 -16 -157 -1
-74 -2 -141 -3 -147 -1 -9 -19 -13 -56 -13 l-56 0 4 317 c3 175 7 332 10 348
20 112 73 282 96 307 3 4 6 -73 5 -170 0 -97 4 -189 9 -205 16 -49 76 -63 115
-27 12 12 22 24 23 28 1 4 2 224 3 489 1 472 1 482 22 510 11 15 31 33 44 39
32 17 2518 17 2551 0z m279 -815 c40 -132 47 -214 48 -523 l1 -298 -55 0 c-30
0 -54 3 -55 8 -4 28 -4 940 0 951 6 18 33 -45 61 -138z m120 -981 c54 -23 65
-87 21 -131 l-29 -29 -1667 0 -1667 0 -29 29 c-16 16 -29 38 -29 48 1 56 28
83 95 92 22 3 769 5 1659 4 1171 -1 1627 -5 1646 -13z"/>
<path d="M1760 1602 c-274 -91 -362 -427 -167 -634 258 -272 713 -57 665 316
-16 127 -100 242 -216 298 -84 40 -198 48 -282 20z m238 -166 c52 -33 87 -79
105 -141 14 -49 14 -58 2 -121 -17 -96 -132 -184 -233 -178 -155 8 -259 140
-228 291 13 62 68 130 130 160 67 32 163 27 224 -11z"/>
<path d="M3413 4469 c-32 -12 -55 -52 -48 -82 10 -40 37 -56 101 -62 133 -12
209 -22 304 -42 41 -8 82 -16 90 -18 26 -4 67 23 74 49 7 28 -5 66 -26 84 -26
21 -185 53 -343 68 -115 11 -131 11 -152 3z"/>
<path d="M3402 4144 c-15 -7 -39 -54 -36 -71 1 -7 2 -20 3 -28 2 -26 45 -44
121 -50 130 -10 263 -29 302 -43 48 -17 103 -14 122 6 36 41 28 95 -19 119
-25 13 -143 40 -210 48 -27 3 -61 8 -75 10 -48 8 -195 14 -208 9z"/>
</g>
</svg>
